<svg width="87" height="56" viewBox="0 0 87 56" fill="none" xmlns="http://www.w3.org/2000/svg">
<g clip-path="url(#clip0_55_1413)">
<path d="M22.5747 50.0356C20.0651 50.0356 18.5064 48.1396 18.5064 45.1547C18.5064 42.1698 20.0651 40.2739 22.5747 40.2739C25.0842 40.2739 26.643 42.1698 26.643 45.1547C26.643 48.1396 25.1505 50.0356 22.5747 50.0356ZM59.5211 34.8513H54.0985V55.4581H60.4055V46.7798L65.8944 55.4581H70.9798V34.8513H64.7446V43.9331L59.5266 34.8513H59.5211ZM51.9262 34.8513H45.282V42.0372H41.0092V34.8513H34.365V55.4581H41.0092V48.0014H45.282V55.4581H51.9262V34.8513ZM4.13464 48.3386C4.13464 49.6929 3.18389 50.1682 2.10048 50.1682C1.49245 50.1682 0.746224 50.0301 0 49.7592V55.4526C1.42612 55.928 2.50953 55.9943 3.32208 55.9943C7.11953 55.9943 10.7788 54.3692 10.7788 47.5869V34.8402H4.13464V48.3331V48.3386ZM22.5747 34.3041C16.3396 34.3041 11.8622 38.8477 11.8622 45.1492C11.8622 51.4506 16.334 55.9943 22.5747 55.9943C28.8153 55.9943 33.2871 51.4506 33.2871 45.1492C33.2871 38.8477 28.8153 34.3041 22.5747 34.3041ZM79.0445 40.6829C79.0445 40.1025 79.5199 39.7322 80.443 39.7322C82.1787 39.7322 84.5942 40.6553 85.8269 41.5618V35.8684C84.2791 34.89 81.9631 34.3096 79.8847 34.3096C75.9988 34.3096 72.5385 36.3382 72.5385 41.0201C72.5385 47.7748 80.4043 47.4653 80.4043 49.5381C80.4043 50.1738 79.94 50.5773 78.7847 50.5773C76.734 50.5773 73.4948 49.223 72.6049 48.3386V54.2366C73.8762 55.132 76.64 55.8617 79.2159 55.8617C83.8093 55.8617 86.9047 53.5567 86.9047 49.2009C86.9047 42.2859 79.039 42.7723 79.039 40.6774L79.0445 40.6829ZM74.1637 15.5268L75.6561 21.9665H72.1295L74.1637 15.5268ZM32.0655 12.6138L33.7625 20.7504H30.1032L32.0711 12.6138H32.0655ZM14.7808 14.3771C14.7808 16.4776 13.83 17.8319 10.7788 19.0534V12.8847C11.5914 12.4093 12.2712 12.2048 12.9456 12.2048C14.2999 12.2048 14.7752 13.3545 14.7752 14.3716L14.7808 14.3771ZM57.6914 12.1384C57.6914 15.1897 55.4528 16.4113 53.4905 16.4113H53.4241V8.34098C56.2045 8.5455 57.697 9.69524 57.697 12.1384H57.6914ZM22.5083 13.4264C22.5083 7.86561 19.1863 5.49427 14.6426 5.49427C11.1878 5.49427 7.11953 6.7822 3.18389 9.22539V30.9157H10.7788V25.8966C17.0858 24.4042 22.5083 20.065 22.5083 13.4208V13.4264ZM70.2335 27.9363H77.3531L78.0993 30.9212H86.0977L78.5028 7.60028C76.8777 6.51688 73.4838 5.22895 71.3833 4.68724L61.2844 30.9212H69.0783L70.228 27.9363H70.2335ZM28.2018 27.1901H35.3213L36.471 30.9212H44.7403L35.7248 0.817931C33.4861 1.02245 30.0977 1.69682 28.2018 2.31038L18.9817 30.9212H27.1847L28.2018 27.1901ZM53.5568 23.8016C61.218 23.7353 65.8944 19.3962 65.8944 12.144C65.8944 3.46012 58.4377 -0.602659 45.6911 0.0717068V30.9157H53.5568V23.7961V23.8016Z" fill="#2D5D2A"/>
</g>
<defs>
<clipPath id="clip0_55_1413">
<rect width="86.9103" height="56" fill="white"/>
</clipPath>
</defs>
</svg>
